<?xml version="1.0" standalone="no"?>
<!DOCTYPE svg PUBLIC "-//W3C//DTD SVG 20010904//EN"
 "http://www.w3.org/TR/2001/REC-SVG-20010904/DTD/svg10.dtd">
<svg version="1.0" xmlns="http://www.w3.org/2000/svg"
 width="512.000000pt" height="512.000000pt" viewBox="0 0 512.000000 512.000000"
 preserveAspectRatio="xMidYMid meet">

<g transform="translate(0.000000,512.000000) scale(0.100000,-0.100000)"
fill="#000000" stroke="none">
<path d="M0 2560 l0 -2560 2560 0 2560 0 0 2560 0 2560 -2560 0 -2560 0 0
-2560z m2866 2104 c455 -67 868 -276 1197 -607 330 -331 531 -731 603 -1202
23 -152 23 -441 0 -595 -71 -465 -276 -871 -606 -1200 -834 -835 -2166 -835
-3000 0 -330 330 -535 736 -606 1201 -24 154 -24 433 0 593 68 464 274 874
606 1206 369 369 822 577 1360 624 85 7 338 -4 446 -20z"/>
<path d="M2199 3445 c-14 -8 -35 -27 -45 -42 -18 -27 -19 -62 -22 -808 -2
-429 0 -799 3 -823 13 -86 90 -138 168 -113 47 16 1118 794 1139 828 22 34 23
94 3 133 -10 19 -193 158 -546 415 -292 212 -545 395 -562 406 -37 22 -101 24
-138 4z"/>
</g>
</svg>
